<svg width="20" height="20" viewBox="0 0 20 20" fill="none" xmlns="http://www.w3.org/2000/svg">
<path d="M10 4.99999C10 5.44202 10.1756 5.86595 10.4882 6.17851C10.8007 6.49107 11.2246 6.66666 11.6667 6.66666C12.1087 6.66666 12.5326 6.49107 12.8452 6.17851C13.1577 5.86595 13.3333 5.44202 13.3333 4.99999M10 4.99999C10 4.55797 10.1756 4.13404 10.4882 3.82148C10.8007 3.50892 11.2246 3.33333 11.6667 3.33333C12.1087 3.33333 12.5326 3.50892 12.8452 3.82148C13.1577 4.13404 13.3333 4.55797 13.3333 4.99999M10 4.99999H3.33334M13.3333 4.99999H16.6667M5.00001 9.99999C5.00001 10.442 5.1756 10.8659 5.48817 11.1785C5.80073 11.4911 6.22465 11.6667 6.66668 11.6667C7.1087 11.6667 7.53263 11.4911 7.84519 11.1785C8.15775 10.8659 8.33334 10.442 8.33334 9.99999M5.00001 9.99999C5.00001 9.55797 5.1756 9.13404 5.48817 8.82148C5.80073 8.50892 6.22465 8.33333 6.66668 8.33333C7.1087 8.33333 7.53263 8.50892 7.84519 8.82148C8.15775 9.13404 8.33334 9.55797 8.33334 9.99999M5.00001 9.99999H3.33334M8.33334 9.99999H16.6667M12.5 15C12.5 15.442 12.6756 15.8659 12.9882 16.1785C13.3007 16.4911 13.7246 16.6667 14.1667 16.6667C14.6087 16.6667 15.0326 16.4911 15.3452 16.1785C15.6577 15.8659 15.8333 15.442 15.8333 15M12.5 15C12.5 14.558 12.6756 14.134 12.9882 13.8215C13.3007 13.5089 13.7246 13.3333 14.1667 13.3333C14.6087 13.3333 15.0326 13.5089 15.3452 13.8215C15.6577 14.134 15.8333 14.558 15.8333 15M12.5 15H3.33334M15.8333 15H16.6667" stroke="#1A428E" stroke-width="1.5" stroke-linecap="round" stroke-linejoin="round"/>
</svg>
